# xmcd CD database file
#
# Track frame offsets:
#	182
#	22162
#	45082
#	59327
#	75865
#	97600
#	129530
#	144117
#	169360
#	182877
#	193632
#	208845
#	255232
#	283142
#	303702
#	325500
#
# Disc length: 4588 seconds
#
# Revision: 0
# Processed by: cddbd v1.4PL0 Copyright (c) Steve Scherf et al.
# Submitted via: CDex 1.50beta9
#
DISCID=d311ea10
DTITLE=Various Artist - El Son No Ha Muerto, the best of Cuban Son
DYEAR=2001
DGENRE=Salsa
TTITLE0=Sierra Maestra - Changó Ta'Veni
TTITLE1=Son 14 - Si Yo Siempre He Sido Son
TTITLE2=Celina González y el Conjunto Campo Alegre - Guateque Campesino
TTITLE3=Ñico Saquito - Maria Cristina
TTITLE4=Cañambú - Para Bailar el Son
TTITLE5=Cachao - El Son No Ha Muerto
TTITLE6=Marcelino Guerra - Oye Mi Son
TTITLE7=Orquesta Aragón - Son al Son
TTITLE8=Benny Moré y su Orquesta - Me Gusta Más el Son
TTITLE9=Celia Cruz con la Sonora Matancera - Suavecito
TTITLE10=Septeto Nacional de Ignacio Piñeiro - Ay Que Bueno (Lindo Yambú)
TTITLE11=Estrellas Areito - Póngase Para las Cosas
TTITLE12=Grupo Irakere - Bailando Asi
TTITLE13=Orquesta Maravillas de Florida - Prestame Tu Mujer
TTITLE14=Roberto Borrell and The Conjunto Tipico Cubano - Son Bacheche
TTITLE15=Rolo Martinez - Mi Son, Mi Son, Mi Son
EXTD=YEAR: 2001
EXTT0=
EXTT1=
EXTT2=
EXTT3=
EXTT4=
EXTT5=
EXTT6=
EXTT7=
EXTT8=
EXTT9=
EXTT10=
EXTT11=
EXTT12=
EXTT13=
EXTT14=
EXTT15=
PLAYORDER=
